<?xml version="1.0" encoding="UTF-8" standalone="no"?>
<!-- Created with Inkscape (http://www.inkscape.org/) -->

<svg
   width="255.90149mm"
   height="161.3782mm"
   viewBox="0 0 255.90149 161.3782"
   version="1.1"
   id="svg8936"
   inkscape:version="1.2.2 (732a01da63, 2022-12-09)"
   sodipodi:docname="unstate_logo_darkwhite1.svg"
   xmlns:inkscape="http://www.inkscape.org/namespaces/inkscape"
   xmlns:sodipodi="http://sodipodi.sourceforge.net/DTD/sodipodi-0.dtd"
   xmlns="http://www.w3.org/2000/svg"
   xmlns:svg="http://www.w3.org/2000/svg">
  <sodipodi:namedview
     id="namedview8938"
     pagecolor="#ffffff"
     bordercolor="#000000"
     borderopacity="0.25"
     inkscape:showpageshadow="2"
     inkscape:pageopacity="0.0"
     inkscape:pagecheckerboard="0"
     inkscape:deskcolor="#d1d1d1"
     inkscape:document-units="mm"
     showgrid="false"
     inkscape:zoom="0.914906"
     inkscape:cx="414.79671"
     inkscape:cy="450.86599"
     inkscape:window-width="2164"
     inkscape:window-height="1259"
     inkscape:window-x="3992"
     inkscape:window-y="152"
     inkscape:window-maximized="0"
     inkscape:current-layer="layer1" />
  <defs
     id="defs8933" />
  <g
     inkscape:label="Layer 1"
     inkscape:groupmode="layer"
     id="layer1"
     transform="translate(7.068523,-30.938936)">
    <path
       d="m 248.83297,140.34239 c 0,16.59819 -15.05656,30.09547 -33.56681,30.09547 -3.4537,0 -6.86859,-0.47978 -10.1847,-1.43228 -18.88067,14.62617 -48.59161,23.31156 -79.97472,23.31156 -14.70378,0 -28.885451,-1.83444 -42.178118,-5.45042 -7.253112,3.57012 -15.673918,5.45042 -24.440446,5.45042 -24.119419,0 -43.744448,-14.33689 -43.744448,-31.95814 0,-0.72319 0.04233,-1.4605 0.123473,-2.2225 -13.2397512,-4.76603 -21.935724,-16.16428 -21.935724,-29.17825 0,-17.34609 15.7515288,-31.460726 35.111974,-31.460726 1.576917,0 3.139723,0.09525 4.68489,0.278694 -1.471084,-2.772833 -2.261306,-5.845528 -2.261306,-9.024056 0,-11.539362 10.410473,-20.930307 23.205724,-20.930307 3.478389,0 6.896806,0.712612 9.997722,2.049639 3.806473,-22.221473 25.110724,-38.932558 50.902309,-38.932558 26.50772,0 48.4117,17.949335 51.24803,40.943392 5.7785,-2.667 12.15672,-4.060473 18.72545,-4.060473 22.61658,0 41.01747,16.46414 41.01747,36.695945 0,2.34245 -0.25047,4.68136 -0.75494,6.985 14.12169,3.72534 24.02417,15.35995 24.02417,28.83959"
       style="fill:#262928;fill-opacity:1;fill-rule:nonzero;stroke:none;stroke-width:0.0352778"
       id="path2537" />
    <text
       xml:space="preserve"
       style="font-size:56.4444px;line-height:1.5;font-family:Barlow;-inkscape-font-specification:Barlow;fill:#000000;stroke:#313a43;stroke-width:0.964999;stroke-linejoin:bevel;stroke-opacity:0"
       x="10.802979"
       y="147.74095"
       id="text2670-7-3"><tspan
         sodipodi:role="line"
         id="tspan2668-1-8"
         style="font-style:normal;font-variant:normal;font-weight:bold;font-stretch:normal;font-size:56.4444px;font-family:'Space Grotesk';-inkscape-font-specification:'Space Grotesk Bold';fill:#fdfcfc;fill-opacity:1;stroke-width:0.964999"
         x="10.802979"
         y="147.74095">UnState</tspan></text>
  </g>
</svg>
